<svg width="32" height="32" viewBox="0 0 32 32" fill="none" xmlns="http://www.w3.org/2000/svg">
<g clip-path="url(#clip0_204626_284)">
<path fill-rule="evenodd" clip-rule="evenodd" d="M12.4211 7C11.6362 7 11 7.63623 11 8.42105V23.5789C11 24.3638 11.6362 25 12.4211 25C13.2059 25 13.8421 24.3638 13.8421 23.5789V8.42105C13.8421 7.63623 13.2059 7 12.4211 7ZM20 7C19.2152 7 18.5789 7.63623 18.5789 8.42105V23.5789C18.5789 24.3638 19.2152 25 20 25C20.7848 25 21.4211 24.3638 21.4211 23.5789V8.42105C21.4211 7.63623 20.7848 7 20 7Z" fill="white"/>
</g>
<defs>
<clipPath id="clip0_204626_284">
<rect width="32" height="32" fill="white"/>
</clipPath>
</defs>
</svg>
